
<svg xmlns="http://www.w3.org/2000/svg" viewBox="0 0 500 500">
  <defs>
    <linearGradient id="glow" x1="0%" y1="0%" x2="100%" y2="0%">
      <stop offset="0%" stop-color="#a8b2c1" />
      <stop offset="100%" stop-color="#d4dde9" />
    </linearGradient>
    <filter id="blur" x="-50%" y="-50%" width="200%" height="200%">
      <feGaussianBlur in="SourceGraphic" stdDeviation="10" />
    </filter>
  </defs>
  <rect width="100%" height="100%" fill="#000000" />
  <g transform="translate(250, 250)">
    <path d="M0,-100 C-55,-100 -100,-55 -100,0 C-100,55 -55,100 0,100 C20,100 40,90 55,75 C70,60 70,30 55,15 C40,0 0,30 -15,45 C-30,60 -30,90 -15,105" 
          stroke="url(#glow)" 
          stroke-width="8" 
          fill="none" 
          filter="url(#blur)" 
          transform="scale(1.5)" />
    <path d="M0,-100 C-55,-100 -100,-55 -100,0 C-100,55 -55,100 0,100 C20,100 40,90 55,75 C70,60 70,30 55,15 C40,0 0,30 -15,45 C-30,60 -30,90 -15,105" 
          stroke="#d4dde9" 
          stroke-width="4" 
          fill="none" 
          transform="scale(1.5)" />
  </g>
  <text x="250" y="400" font-family="Arial" font-size="45" fill="#FFFFFF" text-anchor="middle">EmotionsCare</text>
</svg>
